#!OML:ASF F:\VICON\USERDATA\INSTALL\Justin_Nancy\Justin_Nancy.ASF
:FULLY-SPECIFIED
:DEGREES
127
root -0.284444 17.8425 19.944 4.72866 -2.70131 4.58581
lowerback 6.73773 -1.38098 -4.58878
upperback -1.26774 -2.1612 1.54252
thorax -4.87621 -0.915876 4.42204
lowerneck -24.1019 -2.47349 -8.29256
upperneck 15.5281 -1.82538 6.02891
head 8.93689 -0.68031 3.17056
rclavicle 1.19271e-014 -1.59028e-014
rhumerus -63.0422 6.6192 -94.828
rradius 124.515
rwrist -17.2113
rhand -5.80686 23.4881
rfingers 7.12502
rthumb 20.018 -5.50073
lclavicle 1.19271e-014 -1.59028e-014
lhumerus -42.2622 -15.5715 97.6473
lradius 119.653
lwrist 27.1797
lhand -18.5428 8.93657
lfingers 7.12502
lthumb 7.74649 38.7747
rfemur -30.3433 2.1476 18.8189
rtibia 20.2238
rfoot 3.8674 -5.89037
rtoes -21.9074
lfemur 12.373 -8.74289 -29.1597
ltibia 37.5855
lfoot 25.1699 -7.63737
ltoes -0.101164
128
root -0.291337 17.7714 20.3354 4.22997 -2.70688 4.6799
lowerback 7.16455 -1.30171 -4.48464
upperback -0.998285 -2.06489 1.45356
thorax -4.85224 -0.878085 4.26929
lowerneck -23.9367 -2.5675 -8.32338
upperneck 15.0914 -1.93215 5.97442
head 8.76626 -0.736425 3.13372
rclavicle 1.53064e-014 -8.74653e-015
rhumerus -62.4129 6.40494 -94.6002
rradius 124.687
rwrist -17.0476
rhand -5.90155 23.3354
rfingers 7.12502
rthumb 19.927 -5.66296
lclavicle 1.53064e-014 -8.74653e-015
lhumerus -42.1234 -15.773 97.6559
lradius 119.091
lwrist 26.7319
lhand -18.7356 9.03516
lfingers 7.12502
lthumb 7.56033 38.88
rfemur -29.7572 1.75883 19.0297
rtibia 21.331
rfoot 3.96862 -5.13242
rtoes -21.3798
lfemur 11.6128 -8.71437 -29.1268
ltibia 41.0031
lfoot 23.9347 -7.48841
ltoes 2.11728
129
root -0.299296 17.6822 20.7318 3.68529 -2.77246 4.65008
lowerback 7.50865 -1.20658 -4.29449
upperback -0.666351 -1.93308 1.39322
thorax -4.72043 -0.828653 4.08889
lowerneck -23.7558 -2.64783 -8.31598
upperneck 14.5755 -2.03651 5.94015
head 8.56632 -0.786431 3.09776
rclavicle 3.08116e-014 -3.18055e-015
rhumerus -61.52 6.37504 -94.359
rradius 124.719
rwrist -17.1038
rhand -5.86073 23.0886
rfingers 7.12502
rthumb 19.9662 -5.90568
lclavicle 3.08116e-014 -3.18055e-015
lhumerus -41.8327 -15.9213 97.5347
lradius 118.358
lwrist 26.4476
lhand -19.0386 9.05896
lfingers 7.12502
lthumb 7.26792 38.9141
rfemur -29.4145 1.15509 19.4701
rtibia 23.3245
rfoot 3.82889 -3.84706
rtoes -19.4699
lfemur 11.1333 -8.36678 -28.8888
ltibia 44.0267
lfoot 23.2708 -8.34338
ltoes 0.266623
130
root -0.311041 17.5767 21.1389 3.03755 -3.07316 4.66498
lowerback 7.77263 -1.0595 -4.26481
upperback -0.288563 -1.74105 1.3612
thorax -4.495 -0.747955 4.01813
lowerneck -23.7306 -2.7177 -8.46259
upperneck 14.351 -2.10475 6.07261
head 8.49384 -0.810764 3.15483
rclavicle 3.27995e-015 7.95139e-016
rhumerus -60.6099 6.53908 -94.1642
rradius 124.598
rwrist -17.179
rhand -5.98231 23.1906
rfingers 7.12502
rthumb 19.8494 -5.81578
lclavicle 3.27995e-015 7.95139e-016
lhumerus -41.6032 -15.7254 97.4106
lradius 117.571
lwrist 26.0358
lhand -19.2149 8.98847
lfingers 7.12502
lthumb 7.0977 38.8495
rfemur -28.9315 0.718714 19.8635
rtibia 25.4191
rfoot 3.23645 -1.92587
rtoes -15.4049
lfemur 10.8064 -7.6304 -28.6885
ltibia 47.0451
lfoot 23.0687 -9.53602
ltoes -3.02757
131
root -0.323215 17.4834 21.5447 2.57014 -3.40719 4.48168
lowerback 7.94751 -0.895539 -3.96903
upperback 0.0245636 -1.49892 1.33938
thorax -4.29782 -0.645687 3.80039
lowerneck -23.8337 -2.73753 -8.47498
upperneck 14.2636 -2.11862 6.08678
head 8.48244 -0.814164 3.15883
rclavicle 1.37161e-014 0
rhumerus -59.5954 6.61709 -93.9883
rradius 124.257
rwrist -17.0805
rhand -5.99096 23.5086
rfingers 7.12502
rthumb 19.841 -5.49863
lclavicle 1.37161e-014 0
lhumerus -41.5749 -15.5099 97.2203
lradius 116.897
lwrist 25.8201
lhand -19.3001 9.31442
lfingers 7.12502
lthumb 7.01544 39.1782
rfemur -28.7347 0.456572 20.394
rtibia 27.7186
rfoot 1.47173 -0.154
rtoes -9.04511
lfemur 10.1353 -6.90229 -28.1296
ltibia 50.0734
lfoot 23.5334 -9.76764
ltoes -2.14534
